<?xml version="1.0" encoding="UTF-8" standalone="no"?>
<!DOCTYPE svg PUBLIC "-//W3C//DTD SVG 1.1//EN" "http://www.w3.org/Graphics/SVG/1.1/DTD/svg11.dtd">
<svg width="100%" height="100%" viewBox="0 0 1083 945" version="1.1" xmlns="http://www.w3.org/2000/svg" xmlns:xlink="http://www.w3.org/1999/xlink" xml:space="preserve" xmlns:serif="http://www.serif.com/" style="fill-rule:evenodd;clip-rule:evenodd;stroke-miterlimit:1.5;">
    <g>
        <g>
            <path id='frame-body' d="M1064.08,73.511C1064.45,197.665 1064.45,746.739 1064.08,870.893C1064.03,885.633 1063.98,894.853 1063.92,897.243C1063.92,897.244 1063.92,897.244 1063.92,897.245C1051.53,901.958 1042.95,911.324 1039.67,923.597L1009.13,923.597C1005.78,913.77 1000.77,910.539 982.888,910.506L99.561,910.506C81.682,910.539 76.668,913.77 73.319,923.597L42.78,923.597C39.499,911.324 30.92,901.958 18.53,897.245C18.528,897.244 18.527,897.244 18.526,897.243C18.47,894.853 18.42,885.633 18.374,870.893C17.995,746.739 17.995,197.665 18.374,73.511C18.42,58.771 18.47,49.551 18.526,47.161C18.527,47.16 18.528,47.16 18.53,47.159C30.92,42.446 39.499,33.081 42.78,20.807L73.319,20.807C76.668,30.634 81.682,33.865 99.561,33.898L982.888,33.898C1000.77,33.865 1005.78,30.634 1009.13,20.807L1039.67,20.807C1042.95,33.081 1051.53,42.446 1063.92,47.159C1063.92,47.16 1063.92,47.16 1063.92,47.161C1063.98,49.551 1064.03,58.771 1064.08,73.511Z" style="fill:white;"/>
            <path d="M1064.08,73.511C1064.45,197.665 1064.45,746.739 1064.08,870.893C1064.03,885.633 1063.98,894.853 1063.92,897.243L1063.92,897.245C1051.53,901.958 1042.95,911.324 1039.67,923.597L1009.13,923.597C1005.78,913.77 1000.77,910.539 982.888,910.506L99.561,910.506C81.682,910.539 76.668,913.77 73.319,923.597L42.78,923.597C39.499,911.324 30.92,901.958 18.53,897.245L18.526,897.243C18.47,894.853 18.42,885.633 18.374,870.893C17.995,746.739 17.995,197.665 18.374,73.511C18.42,58.771 18.47,49.551 18.526,47.161L18.53,47.159C30.92,42.446 39.499,33.081 42.78,20.807L73.319,20.807C76.668,30.634 81.682,33.865 99.561,33.898L982.888,33.898C1000.77,33.865 1005.78,30.634 1009.13,20.807L1039.67,20.807C1042.95,33.081 1051.53,42.446 1063.92,47.159L1063.92,47.161C1063.98,49.551 1064.03,58.771 1064.08,73.511ZM19.711,47.987C19.661,51.258 19.616,60.098 19.574,73.514C19.195,197.668 19.195,746.736 19.574,870.89C19.616,884.306 19.661,893.146 19.711,896.418C31.776,901.245 40.212,910.434 43.691,922.397C43.691,922.397 72.469,922.397 72.469,922.397C73.844,918.626 75.535,915.837 78.112,913.81C82.138,910.642 88.437,909.327 99.559,909.306L99.561,909.306L982.888,909.306L982.89,909.306C994.012,909.327 1000.31,910.642 1004.34,913.81C1006.91,915.837 1008.61,918.625 1009.98,922.397C1009.98,922.397 1038.76,922.397 1038.76,922.397C1042.24,910.434 1050.67,901.245 1062.74,896.418C1062.79,893.146 1062.83,884.306 1062.88,870.89C1063.26,746.736 1063.26,197.668 1062.88,73.514C1062.83,60.098 1062.79,51.258 1062.74,47.987C1050.67,43.159 1042.24,33.97 1038.76,22.007C1038.76,22.007 1009.98,22.007 1009.98,22.007C1008.61,25.779 1006.91,28.567 1004.34,30.594C1000.31,33.762 994.012,35.077 982.89,35.098L982.888,35.098L99.561,35.098L99.559,35.098C88.437,35.077 82.138,33.762 78.112,30.594C75.535,28.567 73.844,25.779 72.469,22.007C72.469,22.007 43.691,22.007 43.691,22.007C40.212,33.97 31.776,43.159 19.711,47.987Z"/>
            
        </g>
        <g id='color-frame' filter='url(#myFilter)'> 
            <path d="M18.529,870.715L7.211,883.762L7.211,894.411C11.262,894.962 15.045,895.919 18.53,897.245C30.92,901.958 39.499,911.324 42.78,923.597C43.907,927.811 44.41,932.366 44.228,937.193L1038.22,937.193C1038.04,932.366 1038.54,927.811 1039.67,923.597C1042.95,911.324 1051.53,901.958 1063.92,897.245C1067.4,895.919 1071.19,894.962 1075.24,894.411L1075.24,883.762L1063.92,870.715" style="fill:none;stroke:rgb(255,238,71);stroke-width:8px;"/>
            <path d="M18.529,73.689L7.211,60.642L7.211,49.993C11.262,49.442 15.045,48.485 18.53,47.159C30.92,42.446 39.499,33.081 42.78,20.807C43.907,16.593 44.41,12.038 44.228,7.211L1038.22,7.211C1038.04,12.038 1038.54,16.593 1039.67,20.807C1042.95,33.081 1051.53,42.446 1063.92,47.159C1067.4,48.485 1071.19,49.442 1075.24,49.993L1075.24,60.642L1063.92,73.689" style="fill:none;stroke:rgb(255,238,71);stroke-width:8px;"/>
            <path d="M99.561,33.898L982.888,33.898C1000.77,33.865 1005.78,30.634 1009.13,20.807L1048.05,20.807C1061.52,21.229 1063.61,35.475 1063.92,47.003C1064.51,68.654 1064.51,875.75 1063.92,897.401C1063.61,908.929 1061.52,923.176 1048.05,923.597L1009.13,923.597C1005.78,913.77 1000.77,910.539 982.888,910.506L99.561,910.506C81.682,910.539 76.668,913.77 73.319,923.597L34.396,923.597C20.926,923.176 18.842,908.929 18.53,897.401C17.943,875.75 17.943,68.654 18.53,47.003C18.842,35.475 20.926,21.229 34.396,20.807L73.319,20.807C76.668,30.634 81.682,33.865 99.561,33.898Z" style="fill:none;stroke:rgb(255,238,71);stroke-width:8px;"/>
        </g>
        <g >
            <path d="M18.529,870.715L7.211,883.762L7.211,894.411C11.262,894.962 15.045,895.919 18.53,897.245C30.92,901.958 39.499,911.324 42.78,923.597C43.907,927.811 44.41,932.366 44.228,937.193L1038.22,937.193C1038.04,932.366 1038.54,927.811 1039.67,923.597C1042.95,911.324 1051.53,901.958 1063.92,897.245C1067.4,895.919 1071.19,894.962 1075.24,894.411L1075.24,883.762L1063.92,870.715" style="fill:none;stroke:black;stroke-width:3.33px;"/>
            <path d="M18.529,73.689L7.211,60.642L7.211,49.993C11.262,49.442 15.045,48.485 18.53,47.159C30.92,42.446 39.499,33.081 42.78,20.807C43.907,16.593 44.41,12.038 44.228,7.211L1038.22,7.211C1038.04,12.038 1038.54,16.593 1039.67,20.807C1042.95,33.081 1051.53,42.446 1063.92,47.159C1067.4,48.485 1071.19,49.442 1075.24,49.993L1075.24,60.642L1063.92,73.689" style="fill:none;stroke:black;stroke-width:3.33px;"/>
            <path d="M99.561,33.898L982.888,33.898C1000.77,33.865 1005.78,30.634 1009.13,20.807L1048.05,20.807C1061.52,21.229 1063.61,35.475 1063.92,47.003C1064.51,68.654 1064.51,875.75 1063.92,897.401C1063.61,908.929 1061.52,923.176 1048.05,923.597L1009.13,923.597C1005.78,913.77 1000.77,910.539 982.888,910.506L99.561,910.506C81.682,910.539 76.668,913.77 73.319,923.597L34.396,923.597C20.926,923.176 18.842,908.929 18.53,897.401C17.943,875.75 17.943,68.654 18.53,47.003C18.842,35.475 20.926,21.229 34.396,20.807L73.319,20.807C76.668,30.634 81.682,33.865 99.561,33.898Z" style="fill:none;stroke:black;stroke-width:3.33px;"/>
        </g>
    </g>
    <defs>
    <!-- BLUR -->
        <filter id='myFilter'>
            <!-- bevel -->
            <feConvolveMatrix in="SourceAlpha" order="3,3" kernelMatrix="-100 -10 0 
            -50 0 10 
            0 20 80
            " divisor="1.1" targetX="0" targetY="0" kernelUnitLength=".9" result="bevel"></feConvolveMatrix>
            <!-- 4aa8a27b-5500-4bd4-a314-2daaf8709f78 -->
            <feColorMatrix values="1 0 0 0 0,
            0 1 0 0 0,
            0 0 1 0 0,
            0 0 0 .6 0" result="ConvolveRecolor" in="bevel"></feColorMatrix>
            <!-- e0823536-00f1-4441-a0c7-2b234883113d -->
            <feComposite operator="atop" result="CompositeResult" in="ConvolveRecolor" in2="SourceGraphic"></feComposite>
        </filter>
    </defs>
</svg>
