<?xml version="1.0" encoding="UTF-8" standalone="no"?>
<!DOCTYPE svg PUBLIC "-//W3C//DTD SVG 1.1//EN" "http://www.w3.org/Graphics/SVG/1.1/DTD/svg11.dtd">
<svg width="100%" height="100%" viewBox="0 0 534 431" version="1.1" xmlns="http://www.w3.org/2000/svg" xmlns:xlink="http://www.w3.org/1999/xlink" xml:space="preserve" xmlns:serif="http://www.serif.com/" style="fill-rule:evenodd;clip-rule:evenodd;stroke-miterlimit:1.5;">
    <g>
        <path d="M36.142,347.802C35.916,342.069 35.842,335.663 35.842,328.52L35.842,102.4C35.842,95.257 35.916,88.851 36.142,83.118C57.622,75.892 75.627,59.924 82.649,38.209L143.38,38.209C142.951,52.076 176.604,60.646 207.368,60.646L325.924,60.646C356.688,60.646 390.341,52.076 389.912,38.209L450.644,38.209C457.665,59.924 475.671,75.892 497.15,83.118C497.376,88.851 497.45,95.257 497.45,102.4L497.45,328.52C497.45,335.663 497.376,342.069 497.15,347.802C475.671,355.028 457.665,370.996 450.644,392.711L389.912,392.711C390.341,378.844 356.688,370.274 325.924,370.274L207.368,370.274C176.604,370.274 142.951,378.844 143.38,392.711L82.649,392.711C75.627,370.996 57.622,355.028 36.142,347.802Z" style="fill:#fff;"/>
        <g>
            <path d="M35.68,127.269L13.581,105.404L13.64,87.325C51.733,85.625 87.196,57.11 85.761,15.449L447.532,15.449C446.096,57.11 481.56,85.625 519.652,87.325L519.711,105.404L497.613,127.269" style="fill:none;stroke:#deb400;stroke-width:15.07px;"/>
            <path d="M497.45,102.4L497.45,328.52C497.45,379.115 493.753,392.711 458.388,392.711L389.912,392.711C390.341,378.844 356.688,370.274 325.924,370.274L207.368,370.274C176.604,370.274 142.951,378.844 143.38,392.711L74.904,392.711C39.539,392.711 35.842,379.115 35.842,328.52L35.842,102.4C35.842,51.805 39.539,38.209 74.904,38.209L143.38,38.209C142.951,52.076 176.604,60.646 207.368,60.646L325.924,60.646C356.688,60.646 390.341,52.076 389.912,38.209L458.388,38.209C493.753,38.209 497.45,51.805 497.45,102.4Z" style="fill:none;stroke:#deb400;stroke-width:15.07px;"/>
            <path d="M35.68,303.651L13.581,325.516L13.64,343.595C51.733,345.295 87.196,373.81 85.761,415.471L447.532,415.471C446.096,373.81 481.56,345.295 519.652,343.595L519.711,325.516L497.613,303.651" style="fill:none;stroke:#deb400;stroke-width:15.07px;"/>
            <circle cx="179.071" cy="415.471" r="4.12" style="fill:#141414;stroke:#deb400;stroke-width:12.57px;stroke-linecap:round;"/>
            <circle cx="354.221" cy="415.471" r="4.12" style="fill:#141414;stroke:#deb400;stroke-width:12.57px;stroke-linecap:round;"/>
            <circle cx="179.071" cy="15.449" r="4.12" style="fill:#141414;stroke:#deb400;stroke-width:12.57px;stroke-linecap:round;"/>
            <circle cx="354.221" cy="15.449" r="4.12" style="fill:#141414;stroke:#deb400;stroke-width:12.57px;stroke-linecap:round;"/>
        </g>
        <g>
            <path d="M35.68,127.269L13.581,105.404L13.64,87.325C51.733,85.625 87.196,57.11 85.761,15.449L447.532,15.449C446.096,57.11 481.56,85.625 519.652,87.325L519.711,105.404L497.613,127.269" style="fill:none;stroke:#141414;stroke-width:8.37px;"/>
            <path d="M497.45,102.4L497.45,328.52C497.45,379.115 493.753,392.711 458.388,392.711L389.912,392.711C390.341,378.844 356.688,370.274 325.924,370.274L207.368,370.274C176.604,370.274 142.951,378.844 143.38,392.711L74.904,392.711C39.539,392.711 35.842,379.115 35.842,328.52L35.842,102.4C35.842,51.805 39.539,38.209 74.904,38.209L143.38,38.209C142.951,52.076 176.604,60.646 207.368,60.646L325.924,60.646C356.688,60.646 390.341,52.076 389.912,38.209L458.388,38.209C493.753,38.209 497.45,51.805 497.45,102.4Z" style="fill:none;stroke:#141414;stroke-width:8.37px;"/>
            <path d="M35.68,303.651L13.581,325.516L13.64,343.595C51.733,345.295 87.196,373.81 85.761,415.471L447.532,415.471C446.096,373.81 481.56,345.295 519.652,343.595L519.711,325.516L497.613,303.651" style="fill:none;stroke:#141414;stroke-width:8.37px;"/>
            <circle cx="179.071" cy="415.471" r="6.87" style="fill:#141414;"/>
            <circle cx="354.221" cy="415.471" r="6.87" style="fill:#141414;"/>
            <circle cx="179.071" cy="15.449" r="6.87" style="fill:#141414;"/>
            <circle cx="354.221" cy="15.449" r="6.87" style="fill:#141414;"/>
        </g>
        <g id="text">
            <rect x="54.335" y="268.184" width="424.515" height="29.397" style="fill:#d2dda6;"/>
            <rect x="54.335" y="209.39" width="424.515" height="29.397" style="fill:#d2dda6;"/>
            <rect x="54.335" y="150.596" width="424.515" height="29.397" style="fill:#d2dda6;"/>
            <g transform="matrix(24,0,0,24,374.16,290.735)">
            </g>
            <text x="65.76px" y="290.735px" style="font-family:'ScalySans', 'Scaly Sans';font-size:24px;fill:#2e271e;">5 <tspan x="113.76px " y="290.735px ">D</tspan>olore fugiat exercitation</text>
            <g transform="matrix(24,0,0,24,271.699,261.338)">
            </g>
            <text x="65.707px" y="261.338px" style="font-family:'ScalySans', 'Scaly Sans';font-size:24px;fill:#2e271e;">4 <tspan x="113.707px " y="261.338px ">O</tspan>ccaecat dolor</text>
            <g transform="matrix(24,0,0,24,406.675,231.941)">
            </g>
            <text x="65.707px" y="231.941px" style="font-family:'ScalySans', 'Scaly Sans';font-size:24px;fill:#2e271e;">3 <tspan x="113.707px " y="231.941px ">R</tspan>eprehender sit  et do labore.</text>
            <g transform="matrix(24,0,0,24,310.315,202.544)">
            </g>
            <text x="65.707px" y="202.544px" style="font-family:'ScalySans', 'Scaly Sans';font-size:24px;fill:#2e271e;">2 <tspan x="113.707px " y="202.544px ">D</tspan>eserunt ipsum do</text>
            <g transform="matrix(24,0,0,24,376.824,173.146)">
            </g>
            <text x="65.76px" y="173.146px" style="font-family:'ScalySans', 'Scaly Sans';font-size:24px;fill:#2e271e;">1 <tspan x="113.76px " y="173.146px ">D</tspan>erit est eu reprehenderit</text>
            <g transform="matrix(40,0,0,40,268.369,115.822)">
            </g>
            <text x="60.409px" y="115.822px" style="font-family:'ScalySansCaps', 'Scaly Sans Caps';font-size:40px;fill:#2e271e;">Class Table</text>
        </g>
    </g>
</svg>
